<svg width="27" height="27" viewBox="0 0 27 27" fill="none" xmlns="http://www.w3.org/2000/svg">
<path d="M16.4681 7.40244L15.0783 7.39453L12.9439 13.8769H16.4185C18.1558 13.8769 19.5953 15.3517 19.5953 17.1238C19.5953 18.8959 18.1558 20.3642 16.4185 20.3642H10.8591L8.72473 26.8451H16.4681C21.7297 26.8451 26.0481 22.4908 26.0481 17.0731C26.0481 11.6555 21.7793 7.40244 16.4681 7.40244Z" fill="#2681DB"/>
<path d="M10.843 20.2773L12.9623 13.8772H9.51225C7.78723 13.8772 6.35793 12.3843 6.35793 10.6247C6.35793 8.86515 7.78723 7.39479 9.51225 7.39479H15.0837L17.2009 0.921875H9.51225C4.23862 0.921875 0 5.24543 0 10.6247C0 16.004 4.23862 20.3596 9.51225 20.3596H10.843V20.2773Z" fill="#2681DB"/>
</svg>
